<svg xmlns="http://www.w3.org/2000/svg" xmlns:xlink="http://www.w3.org/1999/xlink" viewBox="0 0 81.3 79.97"><defs><style>.cls-1{fill:#1d1d1b;}.cls-2{fill:url(#radial-gradient);}</style><radialGradient id="radial-gradient" cx="40.65" cy="39.98" r="40.32" gradientUnits="userSpaceOnUse"><stop offset="0.03" stop-color="#36a9e1"/><stop offset="0.3" stop-color="#319ed9"/><stop offset="0.77" stop-color="#2481c4"/><stop offset="1" stop-color="#1d71b8"/></radialGradient></defs><g id="Layer_2" data-name="Layer 2"><g id="Layer_7" data-name="Layer 7"><path class="cls-1" d="M60.84,73.59A36.81,36.81,0,0,1,55,76.5s-1.09.43-2.81.93l-1-3.6a39.88,39.88,0,0,1-7.79,1.36A22.31,22.31,0,0,1,37,75s-.09,1.61-.17,3.81a36.74,36.74,0,0,1-15.32-5.58l2.21-3a40.45,40.45,0,0,1-5.84-5.34,23,23,0,0,1-3.75-5.19s-1.54,1.06-3.57,2.53A36,36,0,0,1,5.19,47.38l3.36-.33a39.47,39.47,0,0,1,.1-7.9A23,23,0,0,1,10,32.89s-1.46-.36-3.54-.82a36.58,36.58,0,0,1,4.86-10.66c10.59.17,20.22,4.29,23.58,7.09l.23.19c.62.53,1.2,1.07,1.75,1.6a3.29,3.29,0,0,0-.53.1,7.82,7.82,0,0,0-1.45.67,13.5,13.5,0,0,0-3.78,3.05A13.2,13.2,0,0,0,42.2,55.85a14.56,14.56,0,0,0,3.86-.9,16.9,16.9,0,0,0,3-1.64C52.08,59,54.89,65.12,59,71,59.6,71.86,60.22,72.73,60.84,73.59Z"/><path class="cls-2" d="M37.89,28.25c5,4.55,6.22,8.27,10.06,16.68,3.12,6.85,5.16,11.27,8.32,17.32,13.1,25,25,16.22,25,16.22-5.83-3-10.91-5.7-11.66-9C79.89,60.4,76,48.9,75.7,49.05,65,54.57,58.17,53.73,56.88,53.52L58.22,53a69.75,69.75,0,0,0,8-4A36.25,36.25,0,0,0,75,40.7a37.64,37.64,0,0,0-5.69-18.5,33.3,33.3,0,0,0-4.62-5.83C58.85,10.68,51.47,1.78,51.05,0c.47,2-2.62,10.75-5,13.81a23.6,23.6,0,0,1-9.15,7c.17-.23.42-.58.7-1a31.79,31.79,0,0,0,3.36-6.51,33.2,33.2,0,0,1,2.14-4.91C41.2,7.49,30.86,3.86,20.3,7,10.79,9.84,8.36,14.46,0,19.3c1.9-1.1,15,.22,20,1.27C24.38,21.47,32,22.79,37.89,28.25Z"/></g></g></svg>