<svg xmlns="http://www.w3.org/2000/svg" xmlns:xlink="http://www.w3.org/1999/xlink" viewBox="0 0 66.8 65.71"><defs><style>.cls-1{fill:url(#radial-gradient);}.cls-2{fill:#dadada;}</style><radialGradient id="radial-gradient" cx="34.18" cy="34.77" r="29.81" gradientUnits="userSpaceOnUse"><stop offset="0.03" stop-color="#36a9e1"/><stop offset="0.3" stop-color="#319ed9"/><stop offset="0.77" stop-color="#2481c4"/><stop offset="1" stop-color="#1d71b8"/></radialGradient></defs><g id="Layer_2" data-name="Layer 2"><g id="Layer_7" data-name="Layer 7"><path class="cls-1" d="M50,60.47a30.24,30.24,0,0,1-4.77,2.39s-.9.35-2.31.77l-.85-3a33,33,0,0,1-6.4,1.11,18.26,18.26,0,0,1-5.26-.17s-.08,1.32-.13,3.13a30,30,0,0,1-12.6-4.59l1.82-2.46a33.29,33.29,0,0,1-4.8-4.38A19.11,19.11,0,0,1,11.62,49s-1.27.87-2.93,2.08A29.65,29.65,0,0,1,4.26,38.93L7,38.66a33.29,33.29,0,0,1,.08-6.49A18.82,18.82,0,0,1,8.24,27s-1.2-.3-2.9-.68a29.51,29.51,0,0,1,4-8.75c8.7.13,16.61,3.52,19.38,5.82l.18.16c.51.43,1,.87,1.44,1.31a2,2,0,0,0-.43.08,7.49,7.49,0,0,0-1.2.55A11,11,0,0,0,25.6,28a10.84,10.84,0,0,0,9.08,17.86,12.18,12.18,0,0,0,3.17-.73,14.67,14.67,0,0,0,2.48-1.35c2.46,4.69,4.77,9.7,8.13,14.51Z"/><path class="cls-2" d="M31.14,23.21C35.21,27,36.24,30,39.4,36.92c2.57,5.63,4.24,9.26,6.84,14.23C57,71.7,66.8,64.48,66.8,64.48c-4.79-2.43-9-4.68-9.58-7.42,8.43-7.43,5.22-16.88,5-16.75C53.43,44.84,47.8,44.15,46.73,44l1.11-.46a56.75,56.75,0,0,0,6.56-3.31,29.8,29.8,0,0,0,7.26-6.77A31,31,0,0,0,57,18.24a27.1,27.1,0,0,0-3.8-4.79C48.36,8.78,42.3,1.46,42,0c.39,1.63-2.16,8.83-4.14,11.35a19.49,19.49,0,0,1-7.52,5.79c.14-.2.34-.48.57-.83A25.84,25.84,0,0,0,33.63,11a25.89,25.89,0,0,1,1.75-4,29.17,29.17,0,0,0-18.7-1.17C8.86,8.09,6.87,11.88,0,15.86c1.56-.91,12.32.18,16.47,1C20,17.64,26.25,18.72,31.14,23.21Z"/></g></g></svg>